<?xml version="1.0" standalone="no"?>
<!DOCTYPE svg PUBLIC "-//W3C//DTD SVG 20010904//EN"
 "http://www.w3.org/TR/2001/REC-SVG-20010904/DTD/svg10.dtd">
<svg version="1.0" xmlns="http://www.w3.org/2000/svg"
 width="553.000000pt" height="553.000000pt" viewBox="0 0 553.000000 553.000000"
 preserveAspectRatio="xMidYMid meet">

<g transform="translate(0.000000,553.000000) scale(0.100000,-0.100000)"
fill="#000000" stroke="none">
<path d="M0 2765 l0 -2765 2765 0 2765 0 0 2765 0 2765 -2765 0 -2765 0 0
-2765z m3036 2644 c403 -39 860 -202 1199 -427 431 -287 771 -684 974 -1139
381 -851 302 -1825 -212 -2598 -135 -204 -368 -459 -557 -609 -313 -249 -692
-432 -1080 -521 -617 -142 -1312 -51 -1860 243 -309 166 -619 421 -833 687
-371 459 -577 1019 -594 1610 -18 622 164 1195 536 1695 163 218 426 467 659
623 365 243 823 406 1242 440 104 8 425 6 526 -4z"/>
<path d="M2551 5349 c-506 -36 -1029 -245 -1441 -575 -108 -86 -305 -283 -394
-394 -288 -360 -478 -791 -552 -1255 -22 -134 -30 -500 -15 -652 77 -766 497
-1471 1136 -1905 609 -414 1363 -553 2078 -384 759 180 1403 693 1747 1391
181 368 270 751 270 1161 0 699 -276 1361 -772 1855 -451 449 -1038 716 -1673
759 -158 11 -220 11 -384 -1z m180 -284 c20 -104 45 -235 56 -290 l19 -100
-35 -8 c-19 -4 -38 -4 -42 0 -4 5 -11 33 -16 63 -4 30 -12 54 -16 53 -4 -2
-23 -3 -42 -3 -32 0 -35 -3 -35 -29 0 -16 -3 -43 -6 -60 -6 -28 -10 -31 -46
-31 l-40 0 6 43 c3 23 15 139 26 257 11 118 23 234 26 258 l6 43 51 -3 51 -3
37 -190z m322 177 c3 -4 -5 -93 -18 -197 -13 -105 -26 -218 -30 -252 l-7 -61
56 -7 c31 -4 56 -11 56 -15 0 -4 -3 -22 -6 -40 l-7 -32 -66 6 c-127 13 -130
14 -125 49 2 18 15 129 29 247 14 118 28 236 31 263 6 47 6 47 44 47 22 0 41
-3 43 -8z m322 -52 c18 -7 25 -15 21 -28 -8 -28 -47 -304 -43 -308 3 -3 47 94
116 258 l20 47 35 -11 c20 -6 36 -17 36 -23 0 -13 -228 -526 -239 -538 -6 -6
-66 8 -79 19 -2 1 13 136 35 298 41 321 37 309 98 286z m-1226 -306 c81 -160
130 -269 125 -274 -6 -6 -23 -12 -40 -16 -28 -5 -31 -3 -54 46 -23 49 -26 51
-54 46 -45 -9 -49 -18 -37 -77 13 -58 9 -66 -36 -75 -38 -7 -30 -29 -73 216
-17 96 -37 208 -45 249 -23 112 -21 126 18 139 17 5 39 10 47 11 10 1 60 -89
149 -265z m1630 165 c17 -6 31 -14 31 -18 0 -4 -47 -114 -105 -245 -58 -130
-112 -253 -120 -272 l-14 -35 -41 21 c-33 17 -39 24 -31 38 8 15 166 373 212
480 20 46 22 47 68 31z m-2100 -115 c60 -50 207 -321 218 -401 5 -35 1 -45
-27 -77 -18 -21 -55 -48 -81 -62 l-48 -24 -24 43 c-91 160 -249 459 -251 473
-2 24 96 74 144 74 27 0 48 -8 69 -26z m2371 -43 c0 -13 -43 -159 -76 -260 -8
-24 -13 -45 -11 -47 1 -2 41 57 87 130 89 140 87 138 133 104 18 -13 9 -30
-138 -263 -86 -137 -158 -251 -160 -253 -3 -3 -25 7 -54 26 -11 8 -4 38 34
161 26 84 45 154 43 156 -2 3 -39 -52 -82 -120 -42 -69 -81 -127 -85 -129 -4
-3 -22 4 -39 14 l-32 19 153 243 c84 134 156 248 160 255 10 15 67 -16 67 -36z
m-2416 -588 c-16 -13 -32 -23 -35 -23 -3 0 -25 18 -49 40 l-43 39 -28 -22
c-15 -12 -28 -25 -28 -30 -1 -4 12 -28 29 -55 l30 -47 -28 -22 c-15 -13 -31
-22 -36 -20 -7 2 -235 385 -291 489 -14 26 -13 27 26 57 l42 30 219 -207 220
-206 -28 -23z m2818 304 l67 -62 -29 -35 -30 -34 -40 39 -39 38 -43 -48 c-62
-69 -63 -73 -34 -96 14 -11 26 -23 26 -27 0 -4 -14 -22 -31 -41 l-31 -33 -27
27 -28 26 -52 -57 c-28 -32 -51 -62 -51 -66 0 -4 16 -23 36 -41 l37 -33 -30
-34 -30 -34 -71 64 c-39 35 -68 68 -65 74 4 6 45 54 93 107 47 52 131 148 188
212 57 64 106 117 110 117 4 -1 37 -29 74 -63z m-1487 -107 c299 -34 614 -160
855 -341 586 -442 842 -1181 654 -1889 -112 -419 -389 -795 -761 -1033 -485
-310 -1109 -363 -1643 -139 -217 90 -389 209 -570 391 -272 273 -433 586 -496
966 -24 144 -24 418 0 560 102 611 494 1109 1066 1357 138 60 363 118 505 131
90 8 306 6 390 -3z m-1805 -213 c232 -198 232 -198 185 -237 -13 -11 -19 -10
-38 7 -39 34 -241 206 -262 222 -23 18 -20 15 140 -167 91 -104 106 -126 94
-137 -12 -11 -37 2 -154 77 -154 98 -175 110 -175 105 0 -2 61 -56 135 -121
74 -64 135 -120 135 -125 0 -4 -11 -18 -24 -30 l-24 -23 -214 183 c-117 100
-218 187 -225 193 -9 8 -3 21 22 50 l33 40 84 -49 c143 -84 173 -100 162 -85
-11 16 -139 175 -160 201 -12 13 -9 21 17 52 17 21 35 37 40 35 4 -2 107 -88
229 -191z m3561 52 c33 -35 38 -82 15 -128 -13 -24 -96 -101 -110 -101 -2 0
-15 14 -27 31 l-22 31 49 44 c45 42 47 45 31 61 -20 20 -17 22 -214 -141 -132
-108 -161 -146 -110 -146 32 0 121 78 107 95 -8 10 -4 18 17 35 l28 22 37 -43
c20 -24 35 -46 32 -50 -2 -4 -53 -48 -113 -97 -104 -86 -110 -90 -125 -73 -9
10 -16 24 -14 30 2 6 -8 17 -21 24 -13 6 -33 24 -44 39 -18 24 -19 32 -8 67
10 35 34 59 172 173 88 73 170 138 182 145 12 7 42 12 65 13 36 0 49 -5 73
-31z m223 -324 c30 -51 41 -94 32 -129 -16 -64 -123 -138 -202 -140 -36 -1
-52 -11 -140 -87 -54 -47 -104 -88 -111 -92 -13 -8 -59 63 -45 72 34 23 182
155 182 162 0 15 -7 12 -116 -52 -100 -59 -106 -61 -119 -43 -19 24 -28 54
-21 61 13 13 492 291 503 292 6 1 23 -19 37 -44z m-4219 -23 c53 -26 86 -53
109 -91 21 -33 35 -40 150 -80 69 -24 129 -47 132 -52 6 -10 -26 -69 -37 -69
-4 0 -58 18 -119 40 -124 45 -120 43 -120 31 0 -5 47 -36 105 -70 l104 -61
-20 -35 c-12 -19 -24 -35 -27 -35 -11 0 -512 293 -512 299 0 4 15 31 33 61 51
87 114 106 202 62z m-74 -432 c151 -34 282 -63 291 -66 16 -5 17 -8 3 -42 -9
-20 -17 -37 -18 -39 -2 -1 -27 4 -57 12 -58 15 -60 15 -78 -27 -13 -30 -10
-34 55 -67 l42 -21 -13 -37 c-8 -23 -19 -37 -27 -35 -15 4 -499 270 -512 281
-8 8 21 101 33 101 4 0 131 -27 281 -60z m4508 18 c14 -32 16 -46 7 -55 -6 -6
-110 -66 -231 -133 -121 -67 -235 -131 -253 -142 l-32 -20 -15 36 c-8 19 -15
37 -15 40 0 2 21 16 48 32 26 15 49 28 50 30 6 4 -19 74 -26 74 -4 0 -31 -7
-60 -14 l-54 -15 -14 36 c-9 20 -12 39 -7 43 4 4 82 24 173 44 91 19 212 47
270 60 141 33 138 33 159 -16z m-1852 -2890 c54 -167 61 -183 80 -180 18 3 23
-3 29 -34 5 -28 3 -39 -9 -46 -14 -7 -14 -14 4 -65 21 -62 18 -70 -26 -79 -29
-5 -31 -3 -50 53 -11 32 -25 57 -30 56 -6 0 -34 -8 -63 -17 l-53 -15 -12 27
c-8 17 -13 102 -14 240 l-3 213 33 14 c17 8 37 14 44 15 7 0 37 -79 70 -182z
m-899 128 c23 -22 27 -34 26 -79 -3 -87 -57 -182 -184 -320 -29 -32 -51 -59
-49 -61 2 -2 28 -11 57 -20 56 -19 61 -29 39 -78 l-12 -26 -102 32 c-56 18
-105 35 -108 38 -17 16 21 90 63 125 92 75 212 250 212 310 0 54 -43 34 -62
-29 -11 -37 -13 -38 -42 -32 -56 12 -57 14 -31 79 32 79 56 97 118 92 36 -3
56 -11 75 -31z m303 -37 c9 -5 25 -25 35 -46 17 -36 17 -48 2 -243 -10 -131
-21 -218 -31 -242 -31 -75 -129 -89 -181 -27 -23 27 -26 39 -26 107 1 146 25
375 44 410 28 53 97 71 157 41z m263 13 c2 -4 18 -127 35 -272 17 -146 34
-277 37 -291 5 -24 2 -27 -37 -33 -23 -4 -43 -5 -44 -4 -2 2 -16 107 -32 233
l-29 230 -27 -3 c-18 -2 -27 2 -27 12 0 8 -2 20 -5 28 -3 8 7 21 25 32 17 10
36 29 42 41 9 21 21 29 50 34 4 0 9 -2 12 -7z"/>
<path d="M2647 5050 c-3 -14 -9 -61 -12 -104 -6 -71 -5 -78 10 -72 9 3 23 6
31 6 10 0 13 7 9 23 -4 13 -12 57 -19 98 -10 54 -15 67 -19 49z"/>
<path d="M2036 4883 c22 -108 24 -113 37 -113 39 1 39 17 -2 99 -23 44 -43 81
-45 81 -2 0 3 -30 10 -67z"/>
<path d="M1585 4860 c-9 -15 179 -354 197 -358 24 -5 29 25 12 66 -25 61 -134
259 -155 281 -21 23 -44 27 -54 11z"/>
<path d="M1300 4556 c0 -18 93 -156 105 -156 7 0 17 6 23 13 9 10 -5 29 -58
82 -39 38 -70 66 -70 61z"/>
<path d="M2710 4262 c-19 -42 -56 -110 -82 -150 l-48 -73 0 -1372 0 -1372 78
-83 c42 -45 82 -82 88 -82 6 0 49 40 97 89 l87 88 -3 1364 -2 1364 -55 81
c-30 45 -69 114 -85 153 -17 39 -32 71 -35 71 -3 -1 -21 -35 -40 -78z"/>
<path d="M2264 3731 c-44 -32 -106 -73 -137 -91 l-57 -32 0 -792 0 -793 83
-134 c124 -201 171 -269 185 -269 9 0 12 224 12 1085 0 597 -1 1085 -3 1085
-2 0 -39 -26 -83 -59z"/>
<path d="M3160 2701 c0 -595 2 -1081 5 -1081 7 0 133 191 208 316 l67 111 0
775 0 776 -72 43 c-40 24 -97 62 -128 84 -30 23 -61 44 -67 49 -10 6 -13 -212
-13 -1073z"/>
<path d="M3680 3004 c0 -268 2 -485 4 -483 9 11 140 311 196 449 71 175 150
395 150 415 0 8 -17 16 -42 20 -39 7 -251 65 -291 81 -16 6 -17 -28 -17 -482z"/>
<path d="M1685 3451 c-49 -15 -119 -33 -155 -41 -36 -7 -66 -14 -68 -15 -14
-11 298 -789 329 -820 5 -5 9 165 9 448 0 359 -3 457 -12 456 -7 0 -53 -13
-103 -28z"/>
<path d="M4797 3898 c-60 -36 -66 -43 -53 -56 33 -33 146 26 146 77 0 29 -15
26 -93 -21z"/>
<path d="M624 3916 c-23 -17 -26 -15 61 -65 58 -33 71 -38 78 -25 25 44 -95
122 -139 90z"/>
<path d="M536 3500 c5 -5 44 -27 87 -50 61 -33 77 -38 79 -26 0 9 1 21 2 28 1
7 -36 21 -88 34 -48 12 -84 19 -80 14z"/>
<path d="M4883 3487 c-64 -16 -83 -25 -83 -38 0 -10 4 -20 10 -24 10 -6 145
58 155 75 3 5 5 10 3 9 -2 -1 -40 -11 -85 -22z"/>
<path d="M3231 575 c0 -98 6 -115 36 -104 l21 8 -24 78 c-14 43 -26 83 -29 88
-2 6 -3 -26 -4 -70z"/>
<path d="M2632 697 c-6 -7 -18 -100 -26 -207 -13 -172 -13 -197 0 -210 27 -27
41 12 50 138 17 240 10 320 -24 279z"/>
</g>
</svg>
